Mihey-Regular.ufo
<glyph name="exclam" format="2">
  <advance width="209"/>
  <unicode hex="0021"/>
  <outline>
    <component base="period"/>
    <contour>
      <point x="82" y="187" type="line"/>
      <point x="125" y="187" type="line"/>
      <point x="191" y="700" type="line"/>
      <point x="16" y="700" type="line"/>
    </contour>
  </outline>
</glyph>
<glyph name="numbersign" format="2">
  <advance width="476"/>
  <unicode hex="0023"/>
  <outline>
    <contour>
      <point x="105.61" y="-8" type="line"/>
      <point x="181.782" y="592" type="line"/>
      <point x="225.14" y="592" type="line"/>
      <point x="148.969" y="-8" type="line"/>
    </contour>
    <contour>
      <point x="254.656" y="-8" type="line"/>
      <point x="330.828" y="592" type="line"/>
      <point x="374.186" y="592" type="line"/>
      <point x="298.015" y="-8" type="line"/>
    </contour>
    <contour>
      <point x="53.3261" y="434" type="line"/>
      <point x="455.172" y="433" type="line"/>
      <point x="447.652" y="388" type="line"/>
      <point x="45.8067" y="389" type="line"/>
    </contour>
    <contour>
      <point x="25.0159" y="211" type="line"/>
      <point x="426.861" y="210" type="line"/>
      <point x="419.342" y="165" type="line"/>
      <point x="17.4964" y="166" type="line"/>
    </contour>
  </outline>
</glyph>
<glyph name="ampersand" format="2">
  <advance width="666"/>
  <unicode hex="0026"/>
  <outline>
    <contour>
      <point x="666" y="0" type="curve"/>
      <point x="474" y="0" type="line"/>
      <point x="439.494" y="31.3462"/>
      <point x="143.789" y="300.112"/>
      <point x="144.027" y="495.299" type="curve" smooth="yes"/>
      <point x="144.149" y="594.217"/>
      <point x="220.309" y="699.48"/>
      <point x="328.342" y="699.48" type="curve" smooth="yes"/>
      <point x="404.3" y="699.48"/>
      <point x="464.437" y="647.24"/>
      <point x="464.437" y="575.888" type="curve" smooth="yes"/>
      <point x="464.437" y="485.701"/>
      <point x="368.36" y="426.918"/>
      <point x="294" y="398" type="curve"/>
      <point x="262" y="428" type="line"/>
      <point x="316.129" y="455.065"/>
      <point x="360.367" y="499.599"/>
      <point x="360.284" y="561.554" type="curve" smooth="yes"/>
      <point x="360.217" y="612.014"/>
      <point x="330.782" y="650.88"/>
      <point x="296.466" y="650.933" type="curve" smooth="yes"/>
      <point x="263.232" y="650.984"/>
      <point x="239.479" y="614.609"/>
      <point x="240.726" y="583.13" type="curve" smooth="yes"/>
      <point x="241.04" y="575.205" type="line" smooth="yes"/>
      <point x="247.266" y="418.096"/>
      <point x="555.375" y="108.745"/>
    </contour>
    <contour>
      <point x="396" y="123" type="curve" smooth="yes"/>
      <point x="429.46" y="156.46"/>
      <point x="498.943" y="230.083"/>
      <point x="498.809" y="285.255" type="curve" smooth="yes"/>
      <point x="498.736" y="315.825"/>
      <point x="477.289" y="340.73"/>
      <point x="416.5" y="350" type="curve"/>
      <point x="416.5" y="395" type="line"/>
      <point x="608.5" y="395" type="line"/>
      <point x="608.5" y="349" type="line"/>
      <point x="544.652" y="202.876"/>
      <point x="407.299" y="-16.4563"/>
      <point x="218.479" y="-16.4563" type="curve" smooth="yes"/>
      <point x="116.224" y="-16.4563"/>
      <point x="23.1532" y="47.8675"/>
      <point x="23.0869" y="165.623" type="curve" smooth="yes"/>
      <point x="23.0276" y="270.887"/>
      <point x="97.33" y="342.754"/>
      <point x="187" y="393" type="curve"/>
      <point x="223" y="361" type="line"/>
      <point x="163.41" y="332.523"/>
      <point x="143.608" y="284.024"/>
      <point x="143.608" y="233.871" type="curve" smooth="yes"/>
      <point x="143.608" y="157.219"/>
      <point x="191.138" y="72.6549"/>
      <point x="279.601" y="72.7675" type="curve" smooth="yes"/>
      <point x="321.315" y="72.8206"/>
      <point x="364.517" y="91.5175"/>
    </contour>
  </outline>
</glyph>
<glyph name="quotesingle" format="2">
  <advance width="155"/>
  <unicode hex="0027"/>
  <outline>
    <contour>
      <point x="54" y="449" type="line"/>
      <point x="100" y="449" type="line"/>
      <point x="133" y="700" type="line"/>
      <point x="22" y="700" type="line"/>
    </contour>
  </outline>
</glyph>
<glyph name="comma" format="2">
  <advance width="208"/>
  <unicode hex="002C"/>
  <outline>
    <contour>
      <point x="41" y="-106" type="line"/>
      <point x="139" y="-88"/>
      <point x="177" y="-19"/>
      <point x="177" y="41.8667" type="curve" smooth="yes"/>
      <point x="177" y="105.989"/>
      <point x="134.827" y="134.792"/>
      <point x="94.7639" y="134.751" type="curve" smooth="yes"/>
      <point x="58.5185" y="134.714"/>
      <point x="24" y="111.069"/>
      <point x="24" y="68.6096" type="curve" smooth="yes"/>
      <point x="24" y="29.4084"/>
      <point x="53.4245" y="-0.786902"/>
      <point x="96.9353" y="-0.769802" type="curve" smooth="yes"/>
      <point x="110.708" y="-0.764402"/>
      <point x="125.891" y="2.268"/>
      <point x="142" y="9" type="curve"/>
      <point x="74" y="59" type="line"/>
      <point x="89.502" y="39.5401"/>
      <point x="96.4097" y="20.4065"/>
      <point x="96.4097" y="3.10634" type="curve" smooth="yes"/>
      <point x="96.4097" y="-32.0454"/>
      <point x="67.8909" y="-59.6281"/>
      <point x="25" y="-67" type="curve"/>
    </contour>
  </outline>
</glyph>
<glyph name="hyphen" format="2">
  <advance width="292"/>
  <unicode hex="002D"/>
  <outline>
    <contour>
      <point x="13" y="368" type="line"/>
      <point x="25" y="327" type="line"/>
      <point x="286" y="327" type="line"/>
      <point x="259" y="433" type="line"/>
    </contour>
  </outline>
</glyph>
<glyph name="period" format="2">
  <advance width="209"/>
  <unicode hex="002E"/>
  <outline>
    <contour>
      <point x="104" y="-9" type="curve" smooth="yes"/>
      <point x="153.124" y="-9"/>
      <point x="177.875" y="27.4342"/>
      <point x="177.875" y="63.776" type="curve" smooth="yes"/>
      <point x="177.875" y="99.9338"/>
      <point x="153.374" y="136"/>
      <point x="104" y="136" type="curve" smooth="yes"/>
      <point x="55.1256" y="136"/>
      <point x="30.8745" y="99.9357"/>
      <point x="30.8745" y="63.7788" type="curve" smooth="yes"/>
      <point x="30.8745" y="27.4361"/>
      <point x="55.3756" y="-9"/>
    </contour>
  </outline>
</glyph>
<glyph name="one" format="2">
  <advance width="286"/>
  <unicode hex="0031"/>
  <outline>
    <contour>
      <point x="218" y="708" type="line"/>
      <point x="193" y="713" type="line"/>
      <point x="161" y="640"/>
      <point x="109" y="593"/>
      <point x="25" y="580" type="curve"/>
      <point x="31" y="546" type="line"/>
      <point x="76" y="538" type="line"/>
      <point x="76" y="45" type="line"/>
      <point x="31" y="45" type="line"/>
      <point x="31" y="0" type="line"/>
      <point x="263" y="0" type="line"/>
      <point x="263" y="45" type="line"/>
      <point x="218" y="45" type="line"/>
    </contour>
  </outline>
</glyph>
<glyph name="three" format="2">
  <advance width="427"/>
  <unicode hex="0033"/>
  <outline>
    <contour>
      <point x="106" y="393" type="line"/>
      <point x="113" y="354" type="line"/>
      <point x="223.781" y="347.776"/>
      <point x="284.595" y="229.115"/>
      <point x="284.588" y="140.447" type="curve" smooth="yes"/>
      <point x="284.583" y="86.6447"/>
      <point x="262.186" y="43.8855"/>
      <point x="214.97" y="43.9884" type="curve" smooth="yes"/>
      <point x="138" y="44.1561"/>
      <point x="100" y="158"/>
      <point x="79" y="241" type="curve"/>
      <point x="31" y="235" type="line"/>
      <point x="46" y="27" type="line"/>
      <point x="91.2367" y="5.43078"/>
      <point x="129.871" y="-12"/>
      <point x="185.491" y="-12" type="curve" smooth="yes"/>
      <point x="328.04" y="-12"/>
      <point x="397.66" y="102.496"/>
      <point x="397.66" y="217.407" type="curve" smooth="yes"/>
      <point x="397.66" y="325.961"/>
      <point x="335.529" y="434.884"/>
      <point x="217" y="448" type="curve"/>
      <point x="398" y="646.5" type="line"/>
      <point x="335" y="646.5" type="line"/>
    </contour>
    <contour>
      <point x="80" y="537" type="line"/>
      <point x="97" y="575" type="line"/>
      <point x="332" y="575" type="line"/>
      <point x="398" y="647" type="line"/>
      <point x="398" y="700" type="line"/>
      <point x="74" y="700" type="line"/>
      <point x="37" y="546" type="line"/>
    </contour>
  </outline>
</glyph>
<glyph name="five" format="2">
  <advance width="421"/>
  <unicode hex="0035"/>
  <outline>
    <contour>
      <point x="103" y="700" type="line"/>
      <point x="89" y="575" type="line"/>
      <point x="362" y="575" type="line"/>
      <point x="403" y="732" type="line"/>
      <point x="360" y="741" type="line"/>
      <point x="345" y="700" type="line"/>
    </contour>
    <contour>
      <point x="54" y="360" type="line"/>
      <point x="220.882" y="360"/>
      <point x="288.387" y="242.555"/>
      <point x="288.407" y="151.779" type="curve" smooth="yes"/>
      <point x="288.419" y="94.5987"/>
      <point x="261.655" y="48"/>
      <point x="216.085" y="48" type="curve" smooth="yes"/>
      <point x="150" y="48"/>
      <point x="97" y="146"/>
      <point x="80" y="234" type="curve"/>
      <point x="32" y="222" type="line"/>
      <point x="47" y="27" type="line"/>
      <point x="92.2364" y="5.43091"/>
      <point x="130.871" y="-12"/>
      <point x="183" y="-12" type="curve" smooth="yes"/>
      <point x="310.399" y="-12"/>
      <point x="403.356" y="89.6458"/>
      <point x="403.126" y="220.664" type="curve"/>
      <point x="400.701" y="257.132" type="line"/>
      <point x="383" y="393"/>
      <point x="277" y="472"/>
      <point x="119" y="472" type="curve"/>
      <point x="143" y="700" type="line"/>
      <point x="85" y="700" type="line"/>
    </contour>
  </outline>
</glyph>
<glyph name="nine" format="2">
  <advance width="428"/>
  <unicode hex="0039"/>
  <outline>
    <contour>
      <point x="214" y="708" type="curve" smooth="yes"/>
      <point x="58" y="708"/>
      <point x="23" y="571"/>
      <point x="23" y="484.43" type="curve" smooth="yes"/>
      <point x="23" y="382"/>
      <point x="72" y="258"/>
      <point x="198.837" y="258" type="curve" smooth="yes"/>
      <point x="214.487" y="258"/>
      <point x="226.042" y="259.888"/>
      <point x="232.676" y="261.354" type="curve" smooth="yes"/>
      <point x="233.99" y="261.644"/>
      <point x="235.11" y="261.918"/>
      <point x="236.032" y="262.157" type="curve" smooth="yes"/>
      <point x="237.641" y="262.575"/>
      <point x="238.864" y="262.957"/>
      <point x="239" y="263" type="curve"/>
      <point x="221" y="173"/>
      <point x="170" y="87"/>
      <point x="70" y="4" type="curve"/>
      <point x="79" y="-10" type="line"/>
      <point x="350" y="92"/>
      <point x="403" y="270"/>
      <point x="403.272" y="435.569" type="curve" smooth="yes"/>
      <point x="403.49" y="568"/>
      <point x="370" y="708"/>
    </contour>
    <contour>
      <point x="217.5" y="306" type="curve" smooth="yes"/>
      <point x="178" y="306"/>
      <point x="160" y="416"/>
      <point x="160" y="482" type="curve" smooth="yes"/>
      <point x="160" y="549"/>
      <point x="178" y="664"/>
      <point x="217.5" y="664" type="curve" smooth="yes"/>
      <point x="257" y="664"/>
      <point x="274" y="549"/>
      <point x="274" y="482" type="curve" smooth="yes"/>
      <point x="274" y="416"/>
      <point x="257" y="306"/>
    </contour>
  </outline>
</glyph>
<glyph name="A" format="2">
  <advance width="484"/>
  <unicode hex="0041"/>
  <outline>
    <contour>
      <point x="235" y="700" type="line"/>
      <point x="185" y="700" type="line"/>
      <point x="25" y="45" type="line"/>
      <point x="77" y="45" type="line"/>
    </contour>
    <contour>
      <point x="155" y="700" type="line"/>
      <point x="272" y="205" type="line"/>
      <point x="111" y="205" type="line"/>
      <point x="101" y="160" type="line"/>
      <point x="283" y="160" type="line"/>
      <point x="310" y="45" type="line"/>
      <point x="259" y="45" type="line"/>
      <point x="259" y="0" type="line"/>
      <point x="490" y="0" type="line"/>
      <point x="490" y="45" type="line"/>
      <point x="455" y="45" type="line"/>
      <point x="300" y="700" type="line"/>
    </contour>
    <contour>
      <point x="123" y="45" type="line"/>
      <point x="-10" y="45" type="line"/>
      <point x="-10" y="0" type="line"/>
      <point x="123" y="0" type="line"/>
    </contour>
  </outline>
</glyph>
<glyph name="E" format="2">
  <advance width="489"/>
  <unicode hex="0045"/>
  <outline>
    <contour>
      <point x="209" y="418" type="line"/>
      <point x="246" y="440"/>
      <point x="279" y="482"/>
      <point x="276" y="533" type="curve"/>
      <point x="319" y="545" type="line"/>
      <point x="379" y="281" type="line"/>
      <point x="336" y="266" type="line"/>
      <point x="309" y="327"/>
      <point x="270" y="361"/>
      <point x="209" y="373" type="curve"/>
      <point x="209" y="50" type="line"/>
      <point x="362" y="50"/>
      <point x="431" y="178"/>
      <point x="457" y="287" type="curve"/>
      <point x="500" y="278" type="line"/>
      <point x="447" y="0" type="line"/>
      <point x="23" y="0" type="line"/>
      <point x="23" y="45" type="line"/>
      <point x="68" y="45" type="line"/>
      <point x="68" y="655" type="line"/>
      <point x="23" y="655" type="line"/>
      <point x="23" y="700" type="line"/>
      <point x="405" y="700" type="line"/>
      <point x="466" y="512" type="line"/>
      <point x="431" y="500" type="line"/>
      <point x="390" y="610"/>
      <point x="246" y="646"/>
      <point x="209" y="644" type="curve"/>
    </contour>
  </outline>
</glyph>
<glyph name="F" format="2">
  <advance width="448"/>
  <unicode hex="0046"/>
  <outline>
    <contour>
      <point x="426" y="697" type="line"/>
      <point x="31" y="697" type="line"/>
      <point x="23" y="655" type="line"/>
      <point x="68" y="655" type="line"/>
      <point x="68" y="45" type="line"/>
      <point x="23" y="45" type="line"/>
      <point x="23" y="0" type="line"/>
      <point x="255" y="0" type="line"/>
      <point x="255" y="45" type="line"/>
      <point x="209" y="45" type="line"/>
      <point x="209" y="644" type="line"/>
      <point x="212" y="644"/>
      <point x="366" y="644"/>
      <point x="427" y="479" type="curve"/>
      <point x="462" y="491" type="line"/>
    </contour>
    <contour>
      <point x="209" y="401" type="curve"/>
      <point x="209" y="356" type="line"/>
      <point x="270" y="344"/>
      <point x="309" y="310"/>
      <point x="336" y="249" type="curve"/>
      <point x="379" y="264" type="line"/>
      <point x="319" y="528" type="line"/>
      <point x="276" y="516" type="line"/>
      <point x="279" y="465"/>
      <point x="246" y="423"/>
    </contour>
  </outline>
</glyph>
<glyph name="H" format="2">
  <advance width="553"/>
  <unicode hex="0048"/>
  <outline>
    <contour>
      <point x="23" y="-1" type="line"/>
      <point x="254" y="-1" type="line"/>
      <point x="254" y="44" type="line"/>
      <point x="209" y="44" type="line"/>
      <point x="209" y="352" type="line"/>
      <point x="344" y="352" type="line"/>
      <point x="344" y="44" type="line"/>
      <point x="299" y="44" type="line"/>
      <point x="299" y="-1" type="line"/>
      <point x="530" y="-1" type="line"/>
      <point x="530" y="44" type="line"/>
      <point x="485" y="44" type="line"/>
      <point x="485" y="655" type="line"/>
      <point x="530" y="655" type="line"/>
      <point x="530" y="700" type="line"/>
      <point x="299" y="700" type="line"/>
      <point x="299" y="655" type="line"/>
      <point x="344" y="655" type="line"/>
      <point x="344" y="397" type="line"/>
      <point x="209" y="397" type="line"/>
      <point x="209" y="655" type="line"/>
      <point x="254" y="655" type="line"/>
      <point x="254" y="700" type="line"/>
      <point x="23" y="700" type="line"/>
      <point x="23" y="655" type="line"/>
      <point x="68" y="655" type="line"/>
      <point x="68" y="44" type="line"/>
      <point x="23" y="44" type="line"/>
    </contour>
  </outline>
</glyph>
<glyph name="L" format="2">
  <advance width="427"/>
  <unicode hex="004C"/>
  <outline>
    <contour>
      <point x="397" y="0" type="line"/>
      <point x="432" y="309.867" type="line"/>
      <point x="389" y="313.88" type="line"/>
      <point x="370" y="213.552"/>
      <point x="312" y="49.0131"/>
      <point x="209" y="45" type="curve"/>
      <point x="209" y="656" type="line"/>
      <point x="254" y="656" type="line"/>
      <point x="254" y="701" type="line"/>
      <point x="23" y="701" type="line"/>
      <point x="23" y="656" type="line"/>
      <point x="68" y="656" type="line"/>
      <point x="68" y="45" type="line"/>
      <point x="23" y="45" type="line"/>
      <point x="23" y="0" type="line"/>
    </contour>
  </outline>
</glyph>
<glyph name="N" format="2">
  <advance width="477"/>
  <unicode hex="004E"/>
  <outline>
    <contour>
      <point x="380.375" y="-1" type="line"/>
      <point x="428" y="-1" type="line"/>
      <point x="428" y="655" type="line"/>
      <point x="473" y="655" type="line"/>
      <point x="473" y="700" type="line"/>
      <point x="332" y="700" type="line"/>
      <point x="332" y="655" type="line"/>
      <point x="379.812" y="655" type="line"/>
    </contour>
    <contour>
      <point x="59.375" y="700" type="line"/>
      <point x="59.25" y="45" type="line"/>
      <point x="12" y="45" type="line"/>
      <point x="12" y="0" type="line"/>
      <point x="157" y="0" type="line"/>
      <point x="157" y="45" type="line"/>
      <point x="110" y="45" type="line"/>
      <point x="110" y="655" type="line"/>
      <point x="151" y="655" type="line"/>
      <point x="141" y="700" type="line"/>
    </contour>
    <contour>
      <point x="385" y="-1" type="line"/>
      <point x="385" y="292" type="line"/>
      <point x="162" y="700" type="line"/>
      <point x="-6" y="700" type="line"/>
    </contour>
  </outline>
</glyph>
<glyph name="O" format="2">
  <advance width="503"/>
  <unicode hex="004F"/>
  <outline>
    <contour>
      <point x="251" y="670" type="curve" smooth="yes"/>
      <point x="323" y="670"/>
      <point x="325" y="554"/>
      <point x="325" y="354" type="curve" smooth="yes"/>
      <point x="325" y="154"/>
      <point x="323" y="30"/>
      <point x="251" y="30" type="curve" smooth="yes"/>
      <point x="180" y="30"/>
      <point x="179" y="154"/>
      <point x="179" y="354" type="curve" smooth="yes"/>
      <point x="179" y="554"/>
      <point x="180" y="670"/>
    </contour>
    <contour>
      <point x="30" y="354" type="curve" smooth="yes"/>
      <point x="30" y="202"/>
      <point x="55" y="-12"/>
      <point x="251" y="-12" type="curve" smooth="yes"/>
      <point x="447" y="-12"/>
      <point x="474" y="203"/>
      <point x="474" y="354" type="curve" smooth="yes"/>
      <point x="474" y="506"/>
      <point x="447" y="712"/>
      <point x="251" y="712" type="curve" smooth="yes"/>
      <point x="55" y="712"/>
      <point x="30" y="506"/>
    </contour>
  </outline>
</glyph>
<glyph name="S" format="2">
  <advance width="419"/>
  <unicode hex="0053"/>
  <outline>
    <contour>
      <point x="247" y="444" type="curve" smooth="yes"/>
      <point x="161" y="490"/>
      <point x="109" y="523"/>
      <point x="109" y="577.45" type="curve" smooth="yes"/>
      <point x="109" y="619.732"/>
      <point x="140.356" y="647.178"/>
      <point x="179.039" y="647.043" type="curve" smooth="yes"/>
      <point x="253.528" y="646.783"/>
      <point x="333.483" y="539.996"/>
      <point x="336" y="467" type="curve"/>
      <point x="381" y="471" type="line"/>
      <point x="392" y="674" type="line"/>
      <point x="386.7" y="677.5"/>
      <point x="339" y="709"/>
      <point x="233" y="709" type="curve" smooth="yes"/>
      <point x="133" y="709"/>
      <point x="39.8796" y="649.988"/>
      <point x="39.0327" y="527.338" type="curve" smooth="yes"/>
      <point x="38.8639" y="502.892" type="line" smooth="yes"/>
      <point x="38.5122" y="451.971"/>
      <point x="48.0698" y="374.36"/>
      <point x="172" y="309" type="curve" smooth="yes"/>
      <point x="246" y="270"/>
      <point x="336" y="215"/>
      <point x="336" y="150.916" type="curve" smooth="yes"/>
      <point x="336" y="108.778"/>
      <point x="297.089" y="80.0257"/>
      <point x="254.178" y="80.0202" type="curve" smooth="yes"/>
      <point x="185.636" y="80.0115"/>
      <point x="99.929" y="153.344"/>
      <point x="73" y="272" type="curve"/>
      <point x="25" y="262" type="line"/>
      <point x="45" y="48" type="line"/>
      <point x="48" y="42.1563"/>
      <point x="75" y="-10.4368"/>
      <point x="186.055" y="-10.1274" type="curve" smooth="yes"/>
      <point x="341" y="-9.6957"/>
      <point x="402" y="93"/>
      <point x="402" y="222" type="curve" smooth="yes"/>
      <point x="402" y="287"/>
      <point x="395" y="365"/>
    </contour>
  </outline>
</glyph>
<glyph name="T" format="2">
  <advance width="504"/>
  <unicode hex="0054"/>
  <outline>
    <contour>
      <point x="181" y="665" type="line"/>
      <point x="181" y="28" type="line"/>
      <point x="323" y="28" type="line"/>
      <point x="323" y="665" type="line"/>
    </contour>
    <contour>
      <point x="137" y="43" type="line"/>
      <point x="137" y="-1" type="line"/>
      <point x="368" y="-1" type="line"/>
      <point x="368" y="43" type="line"/>
    </contour>
    <contour>
      <point x="462" y="440" type="curve"/>
      <point x="504" y="448" type="line"/>
      <point x="473" y="700" type="line"/>
      <point x="252" y="700" type="line"/>
      <point x="252" y="660" type="line"/>
      <point x="287.789" y="659.508" type="line"/>
      <point x="395" y="647"/>
      <point x="451" y="480"/>
    </contour>
    <contour>
      <point x="0" y="448" type="line"/>
      <point x="31" y="700" type="line"/>
      <point x="252" y="700" type="line"/>
      <point x="252" y="660" type="line"/>
      <point x="216.211" y="659.508" type="line"/>
      <point x="109" y="647"/>
      <point x="53" y="480"/>
      <point x="42" y="440" type="curve"/>
    </contour>
  </outline>
</glyph>
<glyph name="U" format="2">
  <advance width="457"/>
  <unicode hex="0055"/>
  <outline>
    <contour>
      <point x="358" y="655" type="line"/>
      <point x="358" y="298" type="line" smooth="yes"/>
      <point x="358" y="202"/>
      <point x="347" y="99"/>
      <point x="276.611" y="99" type="curve" smooth="yes"/>
      <point x="219" y="99"/>
      <point x="205" y="168"/>
      <point x="205" y="277" type="curve" smooth="yes"/>
      <point x="205" y="655" type="line"/>
      <point x="252" y="655" type="line"/>
      <point x="252" y="700" type="line"/>
      <point x="21" y="700" type="line"/>
      <point x="21" y="655" type="line"/>
      <point x="66" y="655" type="line"/>
      <point x="66" y="182" type="line" smooth="yes"/>
      <point x="66" y="25"/>
      <point x="153" y="-12"/>
      <point x="238.751" y="-12" type="curve" smooth="yes"/>
      <point x="355" y="-12"/>
      <point x="409" y="56"/>
      <point x="409" y="220" type="curve" smooth="yes"/>
      <point x="409" y="655" type="line"/>
      <point x="447" y="655" type="line"/>
      <point x="447" y="700" type="line"/>
      <point x="314" y="700" type="line"/>
      <point x="314" y="655" type="line"/>
    </contour>
  </outline>
</glyph>
<glyph name="X" format="2">
  <advance width="476"/>
  <unicode hex="0058"/>
  <outline>
    <contour>
      <point x="172" y="345" type="line"/>
      <point x="47" y="45" type="line"/>
      <point x="0" y="45" type="line"/>
      <point x="0" y="0" type="line"/>
      <point x="149" y="0" type="line"/>
      <point x="149" y="45" type="line"/>
      <point x="101" y="45" type="line"/>
      <point x="224" y="345" type="line"/>
    </contour>
    <contour>
      <point x="283" y="45" type="line"/>
      <point x="235" y="45" type="line"/>
      <point x="235" y="0" type="line"/>
      <point x="481" y="0" type="line"/>
      <point x="481" y="45" type="line"/>
      <point x="439" y="45" type="line"/>
      <point x="197" y="655" type="line"/>
      <point x="245" y="655" type="line"/>
      <point x="245" y="700" type="line"/>
      <point x="0" y="700" type="line"/>
      <point x="0" y="655" type="line"/>
      <point x="42" y="655" type="line"/>
    </contour>
    <contour>
      <point x="289" y="355" type="line"/>
      <point x="414" y="655" type="line"/>
      <point x="461" y="655" type="line"/>
      <point x="461" y="700" type="line"/>
      <point x="312" y="700" type="line"/>
      <point x="312" y="655" type="line"/>
      <point x="360" y="655" type="line"/>
      <point x="237" y="355" type="line"/>
    </contour>
  </outline>
</glyph>
<glyph name="Y" format="2">
  <advance width="440"/>
  <unicode hex="0059"/>
  <outline>
    <contour>
      <point x="242" y="304" type="line"/>
      <point x="292" y="304" type="line"/>
      <point x="410" y="655" type="line"/>
      <point x="445" y="655" type="line"/>
      <point x="445" y="700" type="line"/>
      <point x="314" y="700" type="line"/>
      <point x="314" y="655" type="line"/>
      <point x="361" y="655" type="line"/>
    </contour>
    <contour>
      <point x="292" y="304" type="line"/>
      <point x="174" y="655" type="line"/>
      <point x="221" y="655" type="line"/>
      <point x="221" y="700" type="line"/>
      <point x="-5" y="700" type="line"/>
      <point x="-5" y="655" type="line"/>
      <point x="31" y="655" type="line"/>
      <point x="150" y="304" type="line"/>
      <point x="150" y="44" type="line"/>
      <point x="105" y="44" type="line"/>
      <point x="105" y="-1" type="line"/>
      <point x="337" y="-1" type="line"/>
      <point x="337" y="44" type="line"/>
      <point x="292" y="44" type="line"/>
    </contour>
  </outline>
</glyph>
<glyph name="Z" format="2">
  <advance width="445"/>
  <unicode hex="005A"/>
  <outline>
    <contour>
      <point x="278" y="655" type="line" smooth="yes"/>
      <point x="179" y="655"/>
      <point x="100" y="583"/>
      <point x="64" y="438" type="curve"/>
      <point x="27" y="445" type="line"/>
      <point x="57" y="700" type="line"/>
      <point x="431" y="700" type="line"/>
      <point x="431" y="675" type="line"/>
      <point x="387" y="655" type="line"/>
    </contour>
    <contour>
      <point x="59" y="46.5" type="line"/>
      <point x="168" y="46.5" type="line" smooth="yes"/>
      <point x="269.15" y="46.5"/>
      <point x="366" y="147"/>
      <point x="406" y="287" type="curve"/>
      <point x="449" y="278" type="line"/>
      <point x="389" y="0" type="line"/>
      <point x="14" y="0" type="line"/>
      <point x="14" y="25" type="line"/>
    </contour>
    <contour>
      <point x="431" y="675" type="line"/>
      <point x="156" y="24.5" type="line"/>
      <point x="14" y="24.5" type="line"/>
      <point x="290" y="675" type="line"/>
    </contour>
  </outline>
</glyph>
<glyph name="bracketleft" format="2">
  <advance width="208"/>
  <unicode hex="005B"/>
  <outline>
    <contour>
      <point x="40" y="-177" type="line"/>
      <point x="211" y="-177" type="line"/>
      <point x="211" y="-132" type="line"/>
      <point x="91" y="-132" type="line"/>
      <point x="91" y="789" type="line"/>
      <point x="211" y="789" type="line"/>
      <point x="211" y="834" type="line"/>
      <point x="40" y="834" type="line"/>
    </contour>
  </outline>
</glyph>
<glyph name="asciicircum" format="2">
  <advance width="476"/>
  <unicode hex="005E"/>
  <outline>
    <contour>
      <point x="238" y="636" type="line"/>
      <point x="390" y="350" type="line"/>
      <point x="446" y="350" type="line"/>
      <point x="260" y="700" type="line"/>
      <point x="238" y="700" type="line"/>
    </contour>
    <contour>
      <point x="238" y="636" type="line"/>
      <point x="238" y="700" type="line"/>
      <point x="216" y="700" type="line"/>
      <point x="30" y="350" type="line"/>
      <point x="86" y="350" type="line"/>
    </contour>
  </outline>
</glyph>
<glyph name="bar" format="2">
  <advance width="331"/>
  <unicode hex="007C"/>
  <outline>
    <contour>
      <point x="140" y="-177" type="line"/>
      <point x="191" y="-177" type="line"/>
      <point x="191" y="834" type="line"/>
      <point x="140" y="834" type="line"/>
    </contour>
  </outline>
</glyph>
<glyph name="dieresis" format="2">
  <advance width="397"/>
  <unicode hex="00A8"/>
  <outline>
    <contour>
      <point x="107" y="750" type="curve" smooth="yes"/>
      <point x="148.284" y="750"/>
      <point x="172.138" y="787.038"/>
      <point x="172.138" y="819.788" type="curve" smooth="yes"/>
      <point x="172.138" y="845.74"/>
      <point x="157.158" y="869"/>
      <point x="124" y="869" type="curve" smooth="yes"/>
      <point x="82.895" y="869"/>
      <point x="59.6859" y="832.282"/>
      <point x="59.6859" y="799.639" type="curve" smooth="yes"/>
      <point x="59.6859" y="773.515"/>
      <point x="74.5496" y="750"/>
    </contour>
    <contour>
      <point x="272" y="750" type="curve" smooth="yes"/>
      <point x="313.284" y="750"/>
      <point x="337.138" y="787.038"/>
      <point x="337.138" y="819.788" type="curve" smooth="yes"/>
      <point x="337.138" y="845.74"/>
      <point x="322.158" y="869"/>
      <point x="289" y="869" type="curve" smooth="yes"/>
      <point x="247.895" y="869"/>
      <point x="224.686" y="832.282"/>
      <point x="224.686" y="799.639" type="curve" smooth="yes"/>
      <point x="224.686" y="773.515"/>
      <point x="239.55" y="750"/>
    </contour>
  </outline>
</glyph>
<glyph name="registered" format="2">
  <advance width="350"/>
  <unicode hex="00AE"/>
  <outline>
    <contour>
      <point x="122" y="499" type="line"/>
      <point x="122" y="680" type="line"/>
      <point x="168" y="680" type="line"/>
      <point x="168" y="499" type="line"/>
    </contour>
    <contour>
      <point x="103" y="660" type="line"/>
      <point x="103" y="680" type="line"/>
      <point x="122" y="680" type="line"/>
      <point x="122" y="660" type="line"/>
    </contour>
    <contour>
      <point x="168" y="499" type="line"/>
      <point x="168" y="519" type="line"/>
      <point x="188.477" y="519" type="line"/>
      <point x="188.477" y="499" type="line"/>
    </contour>
    <contour>
      <point x="103" y="499" type="line"/>
      <point x="103" y="519" type="line"/>
      <point x="122" y="519" type="line"/>
      <point x="122" y="499" type="line"/>
    </contour>
    <contour>
      <point x="226" y="586.5" type="line"/>
      <point x="226" y="587"/>
      <point x="245" y="525"/>
      <point x="279" y="491" type="curve"/>
      <point x="264" y="485" type="line"/>
      <point x="226" y="499"/>
      <point x="204.079" y="519"/>
      <point x="181.652" y="579" type="curve"/>
      <point x="177.316" y="579"/>
      <point x="175.651" y="579.383"/>
      <point x="175.642" y="579.977" type="curve"/>
      <point x="175.632" y="580.732"/>
      <point x="178.297" y="581.845"/>
      <point x="181.573" y="582.906" type="curve" smooth="yes"/>
      <point x="181.707" y="582.95"/>
      <point x="182.915" y="583.34"/>
      <point x="183.605" y="583.554" type="curve" smooth="yes"/>
      <point x="184.922" y="583.961"/>
      <point x="186.266" y="584.355"/>
      <point x="187.518" y="584.716" type="curve" smooth="yes"/>
      <point x="188.748" y="585.07"/>
      <point x="189.89" y="585.393"/>
      <point x="190.831" y="585.664" type="curve" smooth="yes"/>
      <point x="192.354" y="586.104"/>
      <point x="193.353" y="586.409"/>
      <point x="193.353" y="586.5" type="curve"/>
    </contour>
    <contour>
      <point x="165.956" y="590" type="line"/>
      <point x="186.527" y="592"/>
      <point x="204.762" y="594.924"/>
      <point x="207.175" y="620.929" type="curve" smooth="yes"/>
      <point x="207.463" y="623.957" type="line" smooth="yes"/>
      <point x="207.579" y="625.173"/>
      <point x="207.582" y="626.372"/>
      <point x="207.574" y="627.545" type="curve" smooth="yes"/>
      <point x="207.446" y="647.003"/>
      <point x="195.245" y="660"/>
      <point x="168" y="660" type="curve"/>
      <point x="166.978" y="680" type="line"/>
      <point x="212" y="680"/>
      <point x="253" y="666"/>
      <point x="253" y="626" type="curve" smooth="yes"/>
      <point x="253" y="585"/>
      <point x="213" y="575"/>
      <point x="165.956" y="575" type="curve"/>
    </contour>
    <contour>
      <point x="174.826" y="735" type="curve" smooth="yes"/>
      <point x="254" y="735"/>
      <point x="321" y="669"/>
      <point x="321" y="588" type="curve" smooth="yes"/>
      <point x="321" y="507"/>
      <point x="254" y="441"/>
      <point x="174.826" y="441" type="curve" smooth="yes"/>
      <point x="94" y="441"/>
      <point x="29" y="507"/>
      <point x="29" y="588" type="curve" smooth="yes"/>
      <point x="29" y="669"/>
      <point x="94" y="735"/>
    </contour>
    <contour>
      <point x="49" y="588" type="curve" smooth="yes"/>
      <point x="49" y="518"/>
      <point x="105" y="461"/>
      <point x="174.826" y="461" type="curve" smooth="yes"/>
      <point x="243" y="461"/>
      <point x="301" y="518"/>
      <point x="301" y="588" type="curve" smooth="yes"/>
      <point x="301" y="658"/>
      <point x="243" y="715"/>
      <point x="174.826" y="715" type="curve" smooth="yes"/>
      <point x="105" y="715"/>
      <point x="49" y="658"/>
    </contour>
  </outline>
</glyph>
<glyph name="degree" format="2">
  <advance width="292"/>
  <unicode hex="00B0"/>
  <outline>
    <contour>
      <point x="139" y="649" type="curve" smooth="yes"/>
      <point x="187.247" y="649"/>
      <point x="211.002" y="612.879"/>
      <point x="211.002" y="576.57" type="curve" smooth="yes"/>
      <point x="211.002" y="539.881"/>
      <point x="186.747" y="503"/>
      <point x="139" y="503" type="curve" smooth="yes"/>
      <point x="91.2526" y="503"/>
      <point x="66.998" y="539.881"/>
      <point x="66.998" y="576.57" type="curve" smooth="yes"/>
      <point x="66.998" y="612.879"/>
      <point x="90.7526" y="649"/>
    </contour>
    <contour>
      <point x="139" y="446" type="curve" smooth="yes"/>
      <point x="224.5" y="446"/>
      <point x="267.25" y="511"/>
      <point x="267.25" y="576" type="curve" smooth="yes"/>
      <point x="267.25" y="641"/>
      <point x="224.5" y="706"/>
      <point x="139" y="706" type="curve" smooth="yes"/>
      <point x="53.5" y="706"/>
      <point x="10.75" y="641"/>
      <point x="10.75" y="576" type="curve" smooth="yes"/>
      <point x="10.75" y="511"/>
      <point x="53.5" y="446"/>
    </contour>
  </outline>
</glyph>
<glyph name="plusminus" format="2">
  <advance width="566"/>
  <unicode hex="00B1"/>
  <outline>
    <component base="minus" yOffset="48"/>
    <component base="minusline" xOffset="-101" yOffset="-242"/>
    <contour>
      <point x="257" y="627" type="line"/>
      <point x="308" y="627" type="line"/>
      <point x="308" y="176" type="line"/>
      <point x="257" y="176" type="line"/>
    </contour>
  </outline>
</glyph>
<glyph name="cedilla" format="2">
  <advance width="281"/>
  <unicode hex="00B8"/>
  <outline>
    <contour>
      <point x="122.233" y="-121.019" type="curve" smooth="yes"/>
      <point x="113.749" y="-137.541"/>
      <point x="86.8115" y="-159.258"/>
      <point x="54.6068" y="-157.476" type="curve" smooth="yes"/>
      <point x="46" y="-157" type="line"/>
      <point x="47" y="-174" type="line"/>
      <point x="52.0512" y="-178.49"/>
      <point x="64.82" y="-181.024"/>
      <point x="81.1907" y="-181.021" type="curve" smooth="yes"/>
      <point x="130.705" y="-181.013"/>
      <point x="214.639" y="-158.13"/>
      <point x="214.713" y="-96.2431" type="curve" smooth="yes"/>
      <point x="214.752" y="-63.7902"/>
      <point x="189.576" y="-30.6184"/>
      <point x="141" y="-22" type="curve"/>
      <point x="68" y="-53" type="line"/>
      <point x="113.558" y="-59.5083"/>
      <point x="126.694" y="-82.2276"/>
      <point x="126.803" y="-101.461" type="curve" smooth="yes"/>
      <point x="126.845" y="-108.824"/>
      <point x="124.977" y="-115.676"/>
    </contour>
    <contour>
      <point x="141" y="-22" type="line"/>
      <point x="177" y="1" type="line"/>
      <point x="164" y="31" type="line"/>
      <point x="57" y="-34" type="line"/>
      <point x="69" y="-53" type="line"/>
    </contour>
  </outline>
</glyph>
<glyph name="Aring" format="2">
  <advance width="484"/>
  <unicode hex="00C5"/>
  <outline>
    <component base="ring" xOffset="106" yOffset="-10"/>
    <contour>
      <point x="235" y="700" type="line"/>
      <point x="185" y="700" type="line"/>
      <point x="25" y="45" type="line"/>
      <point x="77" y="45" type="line"/>
    </contour>
    <contour>
      <point x="171" y="633" type="line"/>
      <point x="272" y="205" type="line"/>
      <point x="111" y="205" type="line"/>
      <point x="101" y="160" type="line"/>
      <point x="283" y="160" type="line"/>
      <point x="310" y="45" type="line"/>
      <point x="259" y="45" type="line"/>
      <point x="259" y="0" type="line"/>
      <point x="490" y="0" type="line"/>
      <point x="490" y="45" type="line"/>
      <point x="455" y="45" type="line"/>
      <point x="300" y="700" type="line"/>
      <point x="221" y="700" type="line"/>
    </contour>
    <contour>
      <point x="123" y="45" type="line"/>
      <point x="-10" y="45" type="line"/>
      <point x="-10" y="0" type="line"/>
      <point x="123" y="0" type="line"/>
    </contour>
  </outline>
</glyph>
<glyph name="Oslash" format="2">
  <advance width="503"/>
  <unicode hex="00D8"/>
  <outline>
    <component base="O"/>
    <contour>
      <point x="47" y="-10" type="line"/>
      <point x="413" y="710" type="line"/>
      <point x="462" y="710" type="line"/>
      <point x="96" y="-10" type="line"/>
    </contour>
  </outline>
</glyph>
<glyph name="Thorn" format="2">
  <advance width="491"/>
  <unicode hex="00DE"/>
  <outline>
    <contour>
      <point x="67" y="40" type="line"/>
      <point x="22" y="40" type="line"/>
      <point x="22" y="-5" type="line"/>
      <point x="250" y="-5" type="line"/>
      <point x="250" y="40" type="line"/>
      <point x="208" y="40" type="line"/>
      <point x="208" y="97" type="line"/>
      <point x="344" y="107"/>
      <point x="468" y="171"/>
      <point x="468" y="358" type="curve"/>
      <point x="468" y="545"/>
      <point x="344" y="603"/>
      <point x="208" y="613" type="curve"/>
      <point x="208" y="670" type="line"/>
      <point x="253" y="670" type="line"/>
      <point x="253" y="715" type="line"/>
      <point x="22" y="715" type="line"/>
      <point x="22" y="670" type="line"/>
      <point x="67" y="670" type="line"/>
    </contour>
    <contour>
      <point x="208" y="145" type="curve"/>
      <point x="208" y="565" type="line"/>
      <point x="310" y="554"/>
      <point x="330" y="454"/>
      <point x="330" y="358" type="curve" smooth="yes"/>
      <point x="330" y="262"/>
      <point x="310" y="156"/>
    </contour>
  </outline>
</glyph>
<glyph name="divide" format="2">
  <advance width="566"/>
  <unicode hex="00F7"/>
  <outline>
    <component base="minus"/>
    <contour>
      <point x="236" y="546" type="curve" smooth="yes"/>
      <point x="236" y="572"/>
      <point x="256" y="592"/>
      <point x="283" y="592" type="curve" smooth="yes"/>
      <point x="309" y="592"/>
      <point x="329" y="572"/>
      <point x="329" y="546" type="curve" smooth="yes"/>
      <point x="329" y="520"/>
      <point x="309" y="500"/>
      <point x="283" y="500" type="curve" smooth="yes"/>
      <point x="256" y="500"/>
      <point x="236" y="520"/>
    </contour>
    <contour>
      <point x="236" y="151" type="curve" smooth="yes"/>
      <point x="236" y="177"/>
      <point x="256" y="197"/>
      <point x="283" y="197" type="curve" smooth="yes"/>
      <point x="309" y="197"/>
      <point x="329" y="177"/>
      <point x="329" y="151" type="curve" smooth="yes"/>
      <point x="329" y="125"/>
      <point x="309" y="105"/>
      <point x="283" y="105" type="curve" smooth="yes"/>
      <point x="256" y="105"/>
      <point x="236" y="125"/>
    </contour>
  </outline>
</glyph>
<glyph name="Uring" format="2">
  <advance width="457"/>
  <unicode hex="016E"/>
  <outline>
    <component base="U"/>
    <contour>
      <point x="282" y="831" type="curve" smooth="yes"/>
      <point x="314.874" y="831"/>
      <point x="331.126" y="814.626"/>
      <point x="331.126" y="798.189" type="curve" smooth="yes"/>
      <point x="331.126" y="781.626"/>
      <point x="314.624" y="765"/>
      <point x="282" y="765" type="curve" smooth="yes"/>
      <point x="249.376" y="765"/>
      <point x="232.874" y="781.626"/>
      <point x="232.874" y="798.189" type="curve" smooth="yes"/>
      <point x="232.874" y="814.626"/>
      <point x="249.126" y="831"/>
    </contour>
    <contour>
      <point x="282" y="720" type="curve" smooth="yes"/>
      <point x="344.5" y="720"/>
      <point x="375.75" y="759"/>
      <point x="375.75" y="798" type="curve" smooth="yes"/>
      <point x="375.75" y="837"/>
      <point x="344.5" y="876"/>
      <point x="282" y="876" type="curve" smooth="yes"/>
      <point x="219.5" y="876"/>
      <point x="188.25" y="837"/>
      <point x="188.25" y="798" type="curve" smooth="yes"/>
      <point x="188.25" y="759"/>
      <point x="219.5" y="720"/>
    </contour>
  </outline>
</glyph>
<glyph name="dotaccent" format="2">
  <advance width="281"/>
  <unicode hex="02D9"/>
  <outline>
    <contour>
      <point x="132" y="750" type="curve" smooth="yes"/>
      <point x="169.124" y="750"/>
      <point x="187.876" y="779.95"/>
      <point x="187.876" y="809.799" type="curve" smooth="yes"/>
      <point x="187.876" y="839.449"/>
      <point x="169.374" y="869"/>
      <point x="132" y="869" type="curve" smooth="yes"/>
      <point x="95.1258" y="869"/>
      <point x="76.8744" y="839.452"/>
      <point x="76.8744" y="809.804" type="curve" smooth="yes"/>
      <point x="76.8744" y="779.953"/>
      <point x="95.3759" y="750"/>
    </contour>
  </outline>
</glyph>
<glyph name="ogonek" format="2">
  <advance width="281"/>
  <unicode hex="02DB"/>
  <outline>
    <contour>
      <point x="115.47" y="-97.6617" type="curve" smooth="yes"/>
      <point x="115.47" y="-61.2776"/>
      <point x="143.338" y="-21.2495"/>
      <point x="196" y="0" type="curve"/>
      <point x="130" y="0" type="line"/>
      <point x="62.5982" y="-34.4846"/>
      <point x="30.5284" y="-86.1678"/>
      <point x="30.6097" y="-130.316" type="curve" smooth="yes"/>
      <point x="30.7054" y="-182.247"/>
      <point x="75.2459" y="-202.567"/>
      <point x="124.923" y="-202.616" type="curve" smooth="yes"/>
      <point x="162.877" y="-202.653"/>
      <point x="200.189" y="-191.266"/>
      <point x="211" y="-182" type="curve"/>
      <point x="212" y="-163" type="line"/>
      <point x="206.013" y="-163.445" type="line" smooth="yes"/>
      <point x="203.768" y="-163.612"/>
      <point x="201.501" y="-163.619"/>
      <point x="200.433" y="-163.628" type="curve" smooth="yes"/>
      <point x="157.54" y="-164"/>
      <point x="115.47" y="-144.028"/>
    </contour>
  </outline>
</glyph>
<glyph name="tilde" format="2">
  <advance width="338"/>
  <unicode hex="02DC"/>
  <outline>
    <contour>
      <point x="312" y="834" type="curve"/>
      <point x="289" y="852" type="line"/>
      <point x="272.328" y="828.128"/>
      <point x="258.24" y="820.05"/>
      <point x="244.56" y="820.094" type="curve" smooth="yes"/>
      <point x="231.748" y="820.136"/>
      <point x="219.293" y="827.302"/>
      <point x="205.409" y="835.293" type="curve" smooth="yes"/>
      <point x="183.307" y="848.014"/>
      <point x="161.743" y="858.441"/>
      <point x="135.805" y="858.441" type="curve" smooth="yes"/>
      <point x="80.6088" y="858.441"/>
      <point x="47.5656" y="806.474"/>
      <point x="25" y="758" type="curve"/>
      <point x="52" y="747" type="line"/>
      <point x="71.2968" y="773.63"/>
      <point x="87.9126" y="782.386"/>
      <point x="103.399" y="782.293" type="curve" smooth="yes"/>
      <point x="118.22" y="782.204"/>
      <point x="132.007" y="774.012"/>
      <point x="146.12" y="765.625" type="curve" smooth="yes"/>
      <point x="155.472" y="760.068"/>
      <point x="164.966" y="754.426"/>
      <point x="178.51" y="749.636" type="curve" smooth="yes"/>
      <point x="191.699" y="744.972"/>
      <point x="203.747" y="742.878"/>
      <point x="214.77" y="742.922" type="curve" smooth="yes"/>
      <point x="264.331" y="743.121"/>
      <point x="293.185" y="786.553"/>
    </contour>
  </outline>
</glyph>
<glyph name="Dzhecyr" format="2">
  <advance width="591"/>
  <unicode hex="040F"/>
  <outline>
    <contour>
      <point x="254" y="-219" type="curve"/>
      <point x="299" y="-219" type="line"/>
      <point x="306" y="-115"/>
      <point x="307" y="0"/>
      <point x="432" y="0" type="curve" smooth="yes"/>
      <point x="530" y="0" type="line"/>
      <point x="530" y="45" type="line"/>
      <point x="485" y="45" type="line"/>
      <point x="485" y="655" type="line"/>
      <point x="530" y="655" type="line"/>
      <point x="530" y="700" type="line"/>
      <point x="299" y="700" type="line"/>
      <point x="299" y="655" type="line"/>
      <point x="344" y="655" type="line"/>
      <point x="344" y="45" type="line"/>
      <point x="209" y="45" type="line"/>
      <point x="209" y="655" type="line"/>
      <point x="254" y="655" type="line"/>
      <point x="254" y="700" type="line"/>
      <point x="23" y="700" type="line"/>
      <point x="23" y="655" type="line"/>
      <point x="68" y="655" type="line"/>
      <point x="68" y="45" type="line"/>
      <point x="23" y="45" type="line"/>
      <point x="23" y="0" type="line"/>
      <point x="121" y="0" type="line" smooth="yes"/>
      <point x="246" y="0"/>
      <point x="247" y="-115"/>
    </contour>
  </outline>
</glyph>
<glyph name="Gecyr" format="2">
  <advance width="428"/>
  <unicode hex="0413"/>
  <outline>
    <contour>
      <point x="397" y="700" type="line"/>
      <point x="432" y="430.264" type="line"/>
      <point x="389" y="426.251" type="line"/>
      <point x="362" y="526.58"/>
      <point x="312" y="650.987"/>
      <point x="209" y="655" type="curve"/>
      <point x="209" y="44" type="line"/>
      <point x="254" y="44" type="line"/>
      <point x="254" y="-1" type="line"/>
      <point x="23" y="-1" type="line"/>
      <point x="23" y="44" type="line"/>
      <point x="68" y="44" type="line"/>
      <point x="68" y="655" type="line"/>
      <point x="23" y="655" type="line"/>
      <point x="23" y="700" type="line"/>
    </contour>
  </outline>
</glyph>
<glyph name="Zhecyr" format="2">
  <advance width="745"/>
  <unicode hex="0416"/>
  <outline>
    <contour>
      <point x="444" y="656" type="line"/>
      <point x="489" y="656" type="line"/>
      <point x="489" y="701" type="line"/>
      <point x="257" y="701" type="line"/>
      <point x="257" y="656" type="line"/>
      <point x="302" y="656" type="line"/>
      <point x="302" y="45" type="line"/>
      <point x="258" y="45" type="line"/>
      <point x="258" y="0" type="line"/>
      <point x="489" y="0" type="line"/>
      <point x="489" y="45" type="line"/>
      <point x="444" y="45" type="line"/>
    </contour>
    <contour>
      <point x="436" y="297" type="line"/>
      <point x="578" y="507" type="line"/>
      <point x="672" y="656" type="line"/>
      <point x="713" y="656" type="line"/>
      <point x="713" y="701" type="line"/>
      <point x="560" y="701" type="line"/>
      <point x="560" y="656" type="line"/>
      <point x="607" y="656" type="line"/>
      <point x="436" y="371" type="line"/>
    </contour>
    <contour>
      <point x="310" y="297" type="line"/>
      <point x="310" y="371" type="line"/>
      <point x="141" y="656" type="line"/>
      <point x="188" y="656" type="line"/>
      <point x="188" y="701" type="line"/>
      <point x="33" y="701" type="line"/>
      <point x="33" y="656" type="line"/>
      <point x="74" y="656" type="line"/>
      <point x="166" y="510" type="line"/>
    </contour>
    <contour>
      <point x="579" y="535" type="curve"/>
      <point x="466" y="372" type="line"/>
      <point x="507.319" y="263.448" type="line" smooth="yes"/>
      <point x="568.783" y="101.971"/>
      <point x="609.776" y="-13.3883"/>
      <point x="756" y="-77" type="curve"/>
      <point x="772" y="-70" type="line"/>
      <point x="647" y="219"/>
      <point x="585.8" y="503.4"/>
    </contour>
    <contour>
      <point x="166" y="535" type="line"/>
      <point x="159.2" y="503.4"/>
      <point x="98" y="219"/>
      <point x="-27" y="-70" type="curve"/>
      <point x="-10" y="-77" type="line"/>
      <point x="136.224" y="-13.3883"/>
      <point x="177.217" y="101.971"/>
      <point x="238.681" y="263.448" type="curve" smooth="yes"/>
      <point x="280" y="372" type="line"/>
    </contour>
  </outline>
</glyph>
<glyph name="Ocyr" format="2">
  <advance width="503"/>
  <unicode hex="041E"/>
  <outline>
    <contour>
      <point x="250.507" y="670" type="curve" smooth="yes"/>
      <point x="322.007" y="670"/>
      <point x="323" y="554"/>
      <point x="323" y="354" type="curve" smooth="yes"/>
      <point x="323" y="154"/>
      <point x="322.007" y="30"/>
      <point x="250.507" y="30" type="curve" smooth="yes"/>
      <point x="180" y="30"/>
      <point x="180" y="154"/>
      <point x="180" y="354" type="curve" smooth="yes"/>
      <point x="180" y="554"/>
      <point x="180" y="670"/>
    </contour>
    <contour>
      <point x="30" y="355" type="curve" smooth="yes"/>
      <point x="30" y="203"/>
      <point x="55" y="-12"/>
      <point x="250.507" y="-12" type="curve" smooth="yes"/>
      <point x="446.826" y="-12"/>
      <point x="473" y="204"/>
      <point x="473" y="355" type="curve" smooth="yes"/>
      <point x="473" y="507"/>
      <point x="446.826" y="712"/>
      <point x="250.507" y="712" type="curve" smooth="yes"/>
      <point x="55" y="712"/>
      <point x="30" y="507"/>
    </contour>
  </outline>
</glyph>
<glyph name="Ercyr" format="2">
  <advance width="488"/>
  <unicode hex="0420"/>
  <outline>
    <contour>
      <point x="24" y="0" type="line"/>
      <point x="255" y="0" type="line"/>
      <point x="255" y="45" type="line"/>
      <point x="210" y="45" type="line"/>
      <point x="210" y="239" type="line"/>
      <point x="222.853" y="237.468"/>
      <point x="235.347" y="236.725"/>
      <point x="247.462" y="236.714" type="curve" smooth="yes"/>
      <point x="395.508" y="236.583"/>
      <point x="487.064" y="345.844"/>
      <point x="487.044" y="471.819" type="curve" smooth="yes"/>
      <point x="487.019" y="621.213"/>
      <point x="358.217" y="700"/>
      <point x="211" y="700" type="curve" smooth="yes"/>
      <point x="23" y="700" type="line"/>
      <point x="23" y="655" type="line"/>
      <point x="69" y="655" type="line"/>
      <point x="69" y="45" type="line"/>
      <point x="24" y="45" type="line"/>
    </contour>
    <contour>
      <point x="210" y="284" type="curve"/>
      <point x="210" y="655" type="line"/>
      <point x="305" y="660"/>
      <point x="332" y="538.315"/>
      <point x="336.407" y="499.956" type="curve" smooth="yes"/>
      <point x="337.5" y="490.444"/>
      <point x="338.472" y="475.013"/>
      <point x="338.472" y="458.991" type="curve" smooth="yes"/>
      <point x="338.472" y="378.883"/>
      <point x="314.167" y="284"/>
    </contour>
  </outline>
</glyph>
<glyph name="Efcyr" format="2">
  <advance width="707"/>
  <unicode hex="0424"/>
  <outline>
    <contour>
      <point x="283" y="40" type="line"/>
      <point x="238" y="40" type="line"/>
      <point x="238" y="-5" type="line"/>
      <point x="466" y="-5" type="line"/>
      <point x="466" y="40" type="line"/>
      <point x="424" y="40" type="line"/>
      <point x="424" y="97" type="line"/>
      <point x="560" y="107"/>
      <point x="684" y="171"/>
      <point x="684" y="358" type="curve"/>
      <point x="684" y="545"/>
      <point x="560" y="603"/>
      <point x="424" y="613" type="curve"/>
      <point x="424" y="670" type="line"/>
      <point x="469" y="670" type="line"/>
      <point x="469" y="715" type="line"/>
      <point x="238" y="715" type="line"/>
      <point x="238" y="670" type="line"/>
      <point x="283" y="670" type="line"/>
      <point x="283" y="613" type="line"/>
      <point x="147" y="603"/>
      <point x="23" y="545"/>
      <point x="23" y="358" type="curve" smooth="yes"/>
      <point x="23" y="171"/>
      <point x="147" y="107"/>
      <point x="283" y="97" type="curve"/>
    </contour>
    <contour>
      <point x="283" y="565" type="curve"/>
      <point x="283" y="145" type="line"/>
      <point x="181" y="156"/>
      <point x="161" y="262"/>
      <point x="161" y="358" type="curve" smooth="yes"/>
      <point x="161" y="454"/>
      <point x="181" y="554"/>
    </contour>
    <contour>
      <point x="424" y="145" type="curve"/>
      <point x="424" y="565" type="line"/>
      <point x="526" y="554"/>
      <point x="546" y="454"/>
      <point x="546" y="358" type="curve" smooth="yes"/>
      <point x="546" y="262"/>
      <point x="526" y="156"/>
    </contour>
  </outline>
</glyph>
<glyph name="Hacyr" format="2">
  <advance width="476"/>
  <unicode hex="0425"/>
  <outline>
    <contour>
      <point x="173" y="345" type="line"/>
      <point x="50" y="45" type="line"/>
      <point x="3" y="45" type="line"/>
      <point x="3" y="0" type="line"/>
      <point x="150" y="0" type="line"/>
      <point x="150" y="45" type="line"/>
      <point x="102" y="45" type="line"/>
      <point x="225" y="345" type="line"/>
    </contour>
    <contour>
      <point x="283" y="45" type="line"/>
      <point x="235" y="45" type="line"/>
      <point x="235" y="0" type="line"/>
      <point x="481" y="0" type="line"/>
      <point x="481" y="45" type="line"/>
      <point x="439" y="45" type="line"/>
      <point x="197" y="655" type="line"/>
      <point x="245" y="655" type="line"/>
      <point x="245" y="700" type="line"/>
      <point x="0" y="700" type="line"/>
      <point x="0" y="655" type="line"/>
      <point x="42" y="655" type="line"/>
    </contour>
    <contour>
      <point x="289" y="355" type="line"/>
      <point x="412" y="655" type="line"/>
      <point x="459" y="655" type="line"/>
      <point x="459" y="700" type="line"/>
      <point x="312" y="700" type="line"/>
      <point x="312" y="655" type="line"/>
      <point x="360" y="655" type="line"/>
      <point x="237" y="355" type="line"/>
    </contour>
  </outline>
</glyph>
<glyph name="Shchacyr" format="2">
  <advance width="805"/>
  <unicode hex="0429"/>
  <outline>
    <contour>
      <point x="596.257" y="0" type="curve" smooth="yes"/>
      <point x="23" y="0" type="line"/>
      <point x="23" y="45" type="line"/>
      <point x="66" y="45" type="line"/>
      <point x="66" y="655" type="line"/>
      <point x="23" y="655" type="line"/>
      <point x="23" y="700" type="line"/>
      <point x="252" y="700" type="line"/>
      <point x="252" y="655" type="line"/>
      <point x="208" y="655" type="line"/>
      <point x="208" y="45" type="line"/>
      <point x="348.246" y="45" type="line"/>
      <point x="361.794" y="81.6926"/>
      <point x="364" y="109.183"/>
      <point x="364" y="148" type="curve" smooth="yes"/>
      <point x="364" y="194.101"/>
      <point x="347.885" y="238.07"/>
      <point x="332.385" y="280.813" type="curve" smooth="yes"/>
      <point x="316.258" y="325.286"/>
      <point x="300" y="370.119"/>
      <point x="300" y="415.132" type="curve" smooth="yes"/>
      <point x="300" y="504.56"/>
      <point x="364.169" y="664.006"/>
      <point x="426" y="725" type="curve"/>
      <point x="443" y="725" type="line"/>
      <point x="420.659" y="686.834"/>
      <point x="419" y="585.846"/>
      <point x="419" y="541" type="curve" smooth="yes"/>
      <point x="419" y="464.49"/>
      <point x="437.321" y="420.901"/>
      <point x="454.358" y="380.394" type="curve" smooth="yes"/>
      <point x="469.163" y="345.193"/>
      <point x="483" y="312.319"/>
      <point x="483" y="262.192" type="curve" smooth="yes"/>
      <point x="483" y="210"/>
      <point x="468" y="143"/>
      <point x="424" y="45" type="curve"/>
      <point x="578" y="45" type="line"/>
      <point x="578" y="655" type="line"/>
      <point x="533.928" y="655" type="line"/>
      <point x="533.928" y="700" type="line"/>
      <point x="766" y="700" type="line"/>
      <point x="766" y="655" type="line"/>
      <point x="720" y="655" type="line"/>
      <point x="720" y="45" type="line"/>
      <point x="804" y="45" type="line"/>
      <point x="776" y="-245" type="line"/>
      <point x="730" y="-239" type="line"/>
      <point x="730" y="-104"/>
      <point x="697.686" y="0"/>
    </contour>
  </outline>
</glyph>
<glyph name="Yucyr" format="2">
  <advance width="752"/>
  <unicode hex="042E"/>
  <outline>
    <contour>
      <point x="505.512" y="670" type="curve" smooth="yes"/>
      <point x="577.017" y="670"/>
      <point x="578.01" y="554"/>
      <point x="578.01" y="354" type="curve" smooth="yes"/>
      <point x="578.01" y="154"/>
      <point x="577.017" y="30"/>
      <point x="505.512" y="30" type="curve" smooth="yes"/>
      <point x="435" y="30"/>
      <point x="435" y="154"/>
      <point x="435" y="354" type="curve" smooth="yes"/>
      <point x="435" y="554"/>
      <point x="435" y="670"/>
    </contour>
    <contour>
      <point x="285" y="355" type="curve" smooth="yes"/>
      <point x="285" y="203"/>
      <point x="310" y="-12"/>
      <point x="505.512" y="-12" type="curve" smooth="yes"/>
      <point x="701.827" y="-12"/>
      <point x="728" y="203"/>
      <point x="728" y="354.5" type="curve" smooth="yes"/>
      <point x="728" y="506"/>
      <point x="701.827" y="712"/>
      <point x="505.512" y="712" type="curve" smooth="yes"/>
      <point x="310" y="712"/>
      <point x="285" y="507"/>
    </contour>
    <contour>
      <point x="71" y="0" type="line"/>
      <point x="212" y="0" type="line"/>
      <point x="212" y="700" type="line"/>
      <point x="71" y="700" type="line"/>
    </contour>
    <contour>
      <point x="164" y="353" type="line"/>
      <point x="350" y="353" type="line"/>
      <point x="350" y="398" type="line"/>
      <point x="164" y="398" type="line"/>
    </contour>
    <contour>
      <point x="26" y="655" type="line"/>
      <point x="71" y="655" type="line"/>
      <point x="71" y="700" type="line"/>
      <point x="26" y="700" type="line"/>
    </contour>
    <contour>
      <point x="212" y="655" type="line"/>
      <point x="257" y="655" type="line"/>
      <point x="257" y="700" type="line"/>
      <point x="212" y="700" type="line"/>
    </contour>
    <contour>
      <point x="212" y="0" type="line"/>
      <point x="257" y="0" type="line"/>
      <point x="257" y="45" type="line"/>
      <point x="212" y="45" type="line"/>
    </contour>
    <contour>
      <point x="26" y="0" type="line"/>
      <point x="71" y="0" type="line"/>
      <point x="71" y="45" type="line"/>
      <point x="26" y="45" type="line"/>
    </contour>
  </outline>
</glyph>
<glyph name="Geupcyr" format="2">
  <advance width="411"/>
  <unicode hex="0490"/>
  <outline>
    <contour>
      <point x="68" y="657" type="line"/>
      <point x="68" y="44" type="line"/>
      <point x="23" y="44" type="line"/>
      <point x="23" y="-1" type="line"/>
      <point x="254" y="-1" type="line"/>
      <point x="254" y="44" type="line"/>
      <point x="209" y="44" type="line"/>
      <point x="209" y="657" type="line"/>
    </contour>
    <contour>
      <point x="199" y="700" type="curve" smooth="yes"/>
      <point x="23" y="700" type="line"/>
      <point x="23" y="655" type="line"/>
      <point x="397" y="655" type="line"/>
      <point x="426" y="852" type="line"/>
      <point x="391" y="864" type="line"/>
      <point x="372" y="810"/>
      <point x="330.015" y="700"/>
    </contour>
  </outline>
</glyph>
<glyph name="endash" format="2">
  <advance width="500"/>
  <unicode hex="2013"/>
  <outline>
    <contour>
      <point x="23" y="397" type="line"/>
      <point x="23" y="332" type="line"/>
      <point x="474" y="332" type="line"/>
      <point x="474" y="397" type="line"/>
    </contour>
  </outline>
</glyph>
<glyph name="emdash" format="2">
  <advance width="688"/>
  <unicode hex="2014"/>
  <outline>
    <contour>
      <point x="23" y="397" type="line"/>
      <point x="23" y="332" type="line"/>
      <point x="667" y="332" type="line"/>
      <point x="667" y="397" type="line"/>
    </contour>
  </outline>
</glyph>
<glyph name="bullet" format="2">
  <advance width="376"/>
  <unicode hex="2022"/>
  <outline>
    <contour>
      <point x="188" y="231" type="curve" smooth="yes"/>
      <point x="267.125" y="231"/>
      <point x="306.875" y="289.434"/>
      <point x="306.875" y="347.776" type="curve" smooth="yes"/>
      <point x="306.875" y="405.934"/>
      <point x="267.375" y="464"/>
      <point x="188" y="464" type="curve" smooth="yes"/>
      <point x="109.252" y="464"/>
      <point x="70.2488" y="406.12"/>
      <point x="70.2488" y="348.057" type="curve" smooth="yes"/>
      <point x="70.2488" y="289.622"/>
      <point x="109.752" y="231"/>
    </contour>
  </outline>
</glyph>
<glyph name="minute" format="2">
  <advance width="213"/>
  <unicode hex="2032"/>
  <outline>
    <contour>
      <point x="10" y="449" type="line"/>
      <point x="48" y="449" type="line"/>
      <point x="159" y="700" type="line"/>
      <point x="48" y="700" type="line"/>
    </contour>
  </outline>
</glyph>
<glyph name="numero" format="2">
  <advance width="695"/>
  <unicode hex="2116"/>
  <outline>
    <contour>
      <point x="583" y="667" type="curve" smooth="yes"/>
      <point x="612" y="667"/>
      <point x="613" y="631"/>
      <point x="613" y="595" type="curve" smooth="yes"/>
      <point x="613" y="558"/>
      <point x="612" y="520"/>
      <point x="583" y="520" type="curve" smooth="yes"/>
      <point x="554" y="520"/>
      <point x="552" y="558"/>
      <point x="552" y="595" type="curve" smooth="yes"/>
      <point x="552" y="631"/>
      <point x="554" y="667"/>
    </contour>
    <contour>
      <point x="484" y="595" type="curve" smooth="yes"/>
      <point x="484" y="549"/>
      <point x="509" y="483"/>
      <point x="583" y="483" type="curve" smooth="yes"/>
      <point x="657" y="483"/>
      <point x="681" y="549"/>
      <point x="681" y="595" type="curve" smooth="yes"/>
      <point x="681" y="642"/>
      <point x="657" y="704"/>
      <point x="583" y="704" type="curve" smooth="yes"/>
      <point x="509" y="704"/>
      <point x="484" y="642"/>
    </contour>
    <contour>
      <point x="491" y="414" type="line"/>
      <point x="674" y="414" type="line"/>
      <point x="674" y="459" type="line"/>
      <point x="491" y="459" type="line"/>
    </contour>
    <contour>
      <point x="380.375" y="-1" type="line"/>
      <point x="428" y="-1" type="line"/>
      <point x="428" y="655" type="line"/>
      <point x="470" y="655" type="line"/>
      <point x="470" y="700" type="line"/>
      <point x="332" y="700" type="line"/>
      <point x="332" y="655" type="line"/>
      <point x="379.812" y="655" type="line"/>
    </contour>
    <contour>
      <point x="59.375" y="700" type="line"/>
      <point x="59.25" y="45" type="line"/>
      <point x="12" y="45" type="line"/>
      <point x="12" y="0" type="line"/>
      <point x="157" y="0" type="line"/>
      <point x="157" y="45" type="line"/>
      <point x="110" y="45" type="line"/>
      <point x="110" y="655" type="line"/>
      <point x="151" y="655" type="line"/>
      <point x="141" y="700" type="line"/>
    </contour>
    <contour>
      <point x="385" y="-1" type="line"/>
      <point x="385" y="292" type="line"/>
      <point x="162" y="700" type="line"/>
      <point x="-6" y="700" type="line"/>
    </contour>
  </outline>
</glyph>
<glyph name="trademark" format="2">
  <advance width="441"/>
  <unicode hex="2122"/>
  <outline>
    <contour>
      <point x="74" y="683" type="line"/>
      <point x="74" y="517" type="line"/>
      <point x="121" y="517" type="line"/>
      <point x="121" y="683" type="line"/>
    </contour>
    <contour>
      <point x="54" y="522" type="line"/>
      <point x="54" y="498" type="line"/>
      <point x="141" y="498" type="line"/>
      <point x="141" y="522" type="line"/>
    </contour>
    <contour>
      <point x="168" y="622" type="curve"/>
      <point x="187" y="627" type="line"/>
      <point x="176" y="700" type="line"/>
      <point x="97" y="700" type="line"/>
      <point x="97" y="681" type="line"/>
      <point x="149" y="681"/>
      <point x="166" y="634"/>
    </contour>
    <contour>
      <point x="246" y="700" type="line"/>
      <point x="203" y="700" type="line"/>
      <point x="203" y="676" type="line"/>
      <point x="222" y="676" type="line"/>
      <point x="210" y="522" type="line"/>
      <point x="190" y="522" type="line"/>
      <point x="190" y="498" type="line"/>
      <point x="252" y="498" type="line"/>
      <point x="252" y="522" type="line"/>
      <point x="233" y="522" type="line"/>
    </contour>
    <contour>
      <point x="369" y="700" type="line"/>
      <point x="343" y="700" type="line"/>
      <point x="309" y="581" type="line"/>
      <point x="275" y="700" type="line"/>
      <point x="228" y="700" type="line"/>
      <point x="290" y="497" type="line"/>
      <point x="309" y="497" type="line"/>
    </contour>
    <contour>
      <point x="26" y="622" type="line"/>
      <point x="28" y="634"/>
      <point x="45" y="681"/>
      <point x="97" y="681" type="curve"/>
      <point x="97" y="700" type="line"/>
      <point x="18" y="700" type="line"/>
      <point x="7" y="627" type="line"/>
    </contour>
    <contour>
      <point x="352" y="700" type="line"/>
      <point x="365" y="522" type="line"/>
      <point x="346" y="522" type="line"/>
      <point x="346" y="498" type="line"/>
      <point x="434" y="498" type="line"/>
      <point x="434" y="522" type="line"/>
      <point x="411" y="522" type="line"/>
      <point x="399" y="677" type="line"/>
      <point x="418" y="677" type="line"/>
      <point x="418" y="700" type="line"/>
    </contour>
  </outline>
</glyph>
<glyph name="A.alt1" format="2">
  <advance width="473"/>
  <outline>
    <contour>
      <point x="224" y="700" type="line"/>
      <point x="175" y="700" type="line"/>
      <point x="15" y="45" type="line"/>
      <point x="66" y="45" type="line"/>
    </contour>
    <contour>
      <point x="113" y="45" type="line"/>
      <point x="-4" y="45" type="line"/>
      <point x="12" y="0" type="line"/>
      <point x="113" y="0" type="line"/>
    </contour>
    <contour>
      <point x="144" y="700" type="line"/>
      <point x="261" y="205" type="line"/>
      <point x="100" y="205" type="line"/>
      <point x="90" y="160" type="line"/>
      <point x="272" y="160" type="line"/>
      <point x="299" y="45" type="line"/>
      <point x="248" y="45" type="line"/>
      <point x="248" y="0" type="line"/>
      <point x="479" y="0" type="line"/>
      <point x="479" y="45" type="line"/>
      <point x="444" y="45" type="line"/>
      <point x="289" y="700" type="line"/>
    </contour>
  </outline>
</glyph>
<glyph name="Acyr.alt2" format="2">
  <advance width="465"/>
  <outline>
    <contour>
      <point x="235" y="700" type="line"/>
      <point x="185" y="700" type="line"/>
      <point x="25" y="45" type="line"/>
      <point x="77" y="45" type="line"/>
    </contour>
    <contour>
      <point x="155" y="700" type="line"/>
      <point x="272" y="205" type="line"/>
      <point x="111" y="205" type="line"/>
      <point x="101" y="160" type="line"/>
      <point x="283" y="160" type="line"/>
      <point x="310" y="45" type="line"/>
      <point x="259" y="45" type="line"/>
      <point x="259" y="0" type="line"/>
      <point x="465" y="0" type="line"/>
      <point x="300" y="700" type="line"/>
    </contour>
    <contour>
      <point x="123" y="45" type="line"/>
      <point x="-10" y="45" type="line"/>
      <point x="-10" y="0" type="line"/>
      <point x="123" y="0" type="line"/>
    </contour>
  </outline>
</glyph>
<glyph name="Aring.alt1" format="2">
  <advance width="473"/>
  <outline>
    <component base="ring" xOffset="95" yOffset="-10"/>
    <contour>
      <point x="224" y="700" type="line"/>
      <point x="174" y="700" type="line"/>
      <point x="14" y="45" type="line"/>
      <point x="66" y="45" type="line"/>
    </contour>
    <contour>
      <point x="160" y="633" type="line"/>
      <point x="261" y="205" type="line"/>
      <point x="100" y="205" type="line"/>
      <point x="90" y="160" type="line"/>
      <point x="272" y="160" type="line"/>
      <point x="299" y="45" type="line"/>
      <point x="248" y="45" type="line"/>
      <point x="248" y="0" type="line"/>
      <point x="479" y="0" type="line"/>
      <point x="479" y="45" type="line"/>
      <point x="444" y="45" type="line"/>
      <point x="289" y="700" type="line"/>
      <point x="210" y="700" type="line"/>
    </contour>
    <contour>
      <point x="112" y="45" type="line"/>
      <point x="-4" y="45" type="line"/>
      <point x="18" y="0" type="line"/>
      <point x="112" y="0" type="line"/>
    </contour>
  </outline>
</glyph>
<glyph name="Emcyr.alt2" format="2">
  <advance width="634"/>
  <outline>
    <contour>
      <point x="13" y="-0.5" type="line"/>
      <point x="154" y="-0.5" type="line"/>
      <point x="154" y="45" type="line"/>
      <point x="105" y="45" type="line"/>
      <point x="136" y="555" type="line"/>
      <point x="269" y="0" type="line"/>
      <point x="298" y="0" type="line"/>
      <point x="442" y="561" type="line"/>
      <point x="475" y="45" type="line"/>
      <point x="430" y="45" type="line"/>
      <point x="430" y="0" type="line"/>
      <point x="618" y="0" type="line"/>
      <point x="577" y="655" type="line"/>
      <point x="619" y="655" type="line"/>
      <point x="619" y="700" type="line"/>
      <point x="433" y="700" type="line"/>
      <point x="328" y="291" type="line"/>
      <point x="229" y="700" type="line"/>
      <point x="51" y="700" type="line"/>
      <point x="51" y="655" type="line"/>
      <point x="93" y="655" type="line"/>
      <point x="57" y="44" type="line"/>
      <point x="13" y="44" type="line"/>
    </contour>
  </outline>
</glyph>
<glyph name="Kacyr.alt" format="2">
  <advance width="527"/>
  <outline>
    <contour>
      <point x="341" y="528" type="line"/>
      <point x="219" y="376" type="line"/>
      <point x="254.975" y="283.137" type="line" smooth="yes"/>
      <point x="344.053" y="53.2003"/>
      <point x="394.648" y="-17.1778"/>
      <point x="511" y="-73" type="curve"/>
      <point x="527" y="-66" type="line"/>
    </contour>
    <contour>
      <point x="210" y="315" type="line"/>
      <point x="449" y="655" type="line"/>
      <point x="496" y="655" type="line"/>
      <point x="496" y="700" type="line"/>
      <point x="329" y="700" type="line"/>
      <point x="329" y="655" type="line"/>
      <point x="380" y="655" type="line"/>
      <point x="210" y="387" type="line"/>
      <point x="210" y="656" type="line"/>
      <point x="255" y="656" type="line"/>
      <point x="255" y="701" type="line"/>
      <point x="24" y="701" type="line"/>
      <point x="24" y="656" type="line"/>
      <point x="68" y="656" type="line"/>
      <point x="68" y="45" type="line"/>
      <point x="23" y="45" type="line"/>
      <point x="23" y="0" type="line"/>
      <point x="254" y="0" type="line"/>
      <point x="254" y="45" type="line"/>
      <point x="210" y="45" type="line"/>
    </contour>
  </outline>
</glyph>
<glyph name="Kacyr.ss03" format="2">
  <advance width="562"/>
  <outline>
    <contour>
      <point x="344" y="521" type="line"/>
      <point x="246" y="366" type="line"/>
      <point x="359" y="45" type="line"/>
      <point x="324" y="45" type="line"/>
      <point x="324" y="0" type="line"/>
      <point x="545" y="0" type="line"/>
      <point x="545" y="45" type="line"/>
      <point x="511" y="45" type="line"/>
    </contour>
    <contour>
      <point x="210" y="315" type="line"/>
      <point x="449" y="655" type="line"/>
      <point x="496" y="655" type="line"/>
      <point x="496" y="700" type="line"/>
      <point x="339" y="700" type="line"/>
      <point x="339" y="655" type="line"/>
      <point x="390" y="655" type="line"/>
      <point x="210" y="387" type="line"/>
      <point x="210" y="656" type="line"/>
      <point x="255" y="656" type="line"/>
      <point x="255" y="701" type="line"/>
      <point x="24" y="701" type="line"/>
      <point x="24" y="656" type="line"/>
      <point x="68" y="656" type="line"/>
      <point x="68" y="45" type="line"/>
      <point x="23" y="45" type="line"/>
      <point x="23" y="0" type="line"/>
      <point x="254" y="0" type="line"/>
      <point x="254" y="45" type="line"/>
      <point x="210" y="45" type="line"/>
    </contour>
  </outline>
</glyph>
<glyph name="Shchacyr.ss01" format="2">
  <advance width="806"/>
  <outline>
    <contour>
      <point x="755" y="0" type="line"/>
      <point x="755" y="2.586"/>
      <point x="754.136" y="3.7795"/>
      <point x="752.545" y="3.7604" type="curve" smooth="yes"/>
      <point x="735.23" y="3.5521"/>
      <point x="631.872" y="-140.472"/>
      <point x="622" y="-196" type="curve"/>
      <point x="745" y="-250" type="line"/>
      <point x="745" y="-114"/>
      <point x="799" y="-11.4"/>
      <point x="805" y="0" type="curve"/>
      <point x="805" y="45" type="line"/>
      <point x="722" y="45" type="line"/>
      <point x="722" y="655" type="line"/>
      <point x="767" y="655" type="line"/>
      <point x="767" y="700" type="line"/>
      <point x="536" y="700" type="line"/>
      <point x="536" y="655" type="line"/>
      <point x="581" y="655" type="line"/>
      <point x="581" y="45" type="line"/>
      <point x="428.923" y="45" type="line"/>
      <point x="472.246" y="143"/>
      <point x="488" y="211"/>
      <point x="488" y="264.058" type="curve" smooth="yes"/>
      <point x="488" y="308.405"/>
      <point x="476.529" y="340.655"/>
      <point x="459.468" y="380.819" type="curve" smooth="yes"/>
      <point x="442.4" y="421"/>
      <point x="424" y="464.325"/>
      <point x="424" y="541" type="curve" smooth="yes"/>
      <point x="424" y="684"/>
      <point x="445.268" y="720.9"/>
      <point x="447.631" y="725" type="curve"/>
      <point x="430.892" y="725" type="line"/>
      <point x="368.17" y="662.17"/>
      <point x="305" y="506.327"/>
      <point x="305" y="416.264" type="curve" smooth="yes"/>
      <point x="305" y="370.481"/>
      <point x="321.324" y="325.359"/>
      <point x="337.385" y="281.319" type="curve" smooth="yes"/>
      <point x="353.256" y="237.802"/>
      <point x="369" y="194.631"/>
      <point x="369" y="149" type="curve" smooth="yes"/>
      <point x="369" y="111.462"/>
      <point x="367.319" y="80.5162"/>
      <point x="354" y="45" type="curve"/>
      <point x="209" y="45" type="line"/>
      <point x="209" y="655" type="line"/>
      <point x="254" y="655" type="line"/>
      <point x="254" y="700" type="line"/>
      <point x="23" y="700" type="line"/>
      <point x="23" y="655" type="line"/>
      <point x="68.5" y="655" type="line"/>
      <point x="68.5" y="45" type="line"/>
      <point x="24" y="45" type="line"/>
      <point x="24" y="0" type="line"/>
    </contour>
  </outline>
</glyph>
<glyph name="U.old" format="2">
  <advance width="456"/>
  <outline>
    <contour>
      <point x="360" y="655" type="line"/>
      <point x="360" y="283" type="line" smooth="yes"/>
      <point x="360" y="187"/>
      <point x="349" y="94"/>
      <point x="277.75" y="94" type="curve" smooth="yes"/>
      <point x="221" y="94"/>
      <point x="207" y="153"/>
      <point x="207" y="262" type="curve" smooth="yes"/>
      <point x="207" y="655" type="line"/>
      <point x="254" y="655" type="line"/>
      <point x="254" y="700" type="line"/>
      <point x="23" y="700" type="line"/>
      <point x="23" y="655" type="line"/>
      <point x="68" y="655" type="line"/>
      <point x="68" y="182" type="line" smooth="yes"/>
      <point x="68" y="25"/>
      <point x="155" y="-12"/>
      <point x="240.751" y="-12" type="curve" smooth="yes"/>
      <point x="357" y="-12"/>
      <point x="411" y="56"/>
      <point x="411" y="220" type="curve" smooth="yes"/>
      <point x="411" y="655" type="line"/>
      <point x="453" y="655" type="line"/>
      <point x="453" y="700" type="line"/>
      <point x="316" y="700" type="line"/>
      <point x="316" y="655" type="line"/>
    </contour>
  </outline>
</glyph>
<glyph name="half-arrow-end" format="2">
  <advance width="487"/>
  <outline>
    <contour>
      <point x="63" y="320" type="line"/>
      <point x="19" y="194" type="line"/>
      <point x="377" y="220" type="line"/>
      <point x="425" y="320" type="line"/>
    </contour>
  </outline>
</glyph>
<glyph name="half-of-figure-bracket" format="2">
  <advance width="380"/>
  <outline>
    <contour>
      <point x="0" y="330" type="line"/>
      <point x="135.619" y="348.342"/>
      <point x="142.105" y="473.575"/>
      <point x="148.239" y="592.026" type="curve" smooth="yes"/>
      <point x="153.141" y="686.687"/>
      <point x="157.819" y="777.017"/>
      <point x="228" y="805" type="curve"/>
      <point x="211" y="833" type="line"/>
      <point x="101.517" y="779.037"/>
      <point x="96.7657" y="654.535"/>
      <point x="92.6704" y="547.224" type="curve" smooth="yes"/>
      <point x="88.8731" y="447.722"/>
      <point x="85.6399" y="363"/>
      <point x="0" y="363" type="curve"/>
    </contour>
  </outline>
</glyph>
<glyph name="kratka" format="2">
  <advance width="333"/>
  <outline>
    <contour>
      <point x="157.243" y="861" type="curve" smooth="yes"/>
      <point x="129" y="861"/>
      <point x="91" y="840"/>
      <point x="91" y="796.564" type="curve" smooth="yes"/>
      <point x="91" y="752"/>
      <point x="131" y="736"/>
      <point x="161.667" y="736" type="curve" smooth="yes"/>
      <point x="223" y="736"/>
      <point x="280" y="800"/>
      <point x="289" y="861" type="curve"/>
      <point x="254" y="875" type="line"/>
      <point x="247.125" y="844.924"/>
      <point x="229.175" y="806.725"/>
      <point x="187.457" y="806.725" type="curve" smooth="yes"/>
      <point x="180.627" y="806.725"/>
      <point x="173.16" y="807.749"/>
      <point x="165" y="810" type="curve"/>
      <point x="201" y="786" type="line"/>
      <point x="206.037" y="796.302"/>
      <point x="208.243" y="805.818"/>
      <point x="208.246" y="814.368" type="curve" smooth="yes"/>
      <point x="208.256" y="843.164"/>
      <point x="183.272" y="861"/>
    </contour>
  </outline>
</glyph>
<glyph name="longarrowend" format="2">
  <advance width="797"/>
  <outline>
    <component base="half-arrow-end" xOffset="30" yOffset="18"/>
    <component base="half-arrow-end" yScale="-1" xOffset="30" yOffset="711"/>
    <contour>
      <point x="13" y="396.5" type="line"/>
      <point x="837" y="396.5" type="line"/>
      <point x="837" y="331.5" type="line"/>
      <point x="13" y="331.5" type="line"/>
    </contour>
  </outline>
</glyph>
<glyph name="longarrowtip" format="2">
  <advance width="949"/>
  <outline>
    <component base="long-haf-arrow-tip" xOffset="597" yOffset="-12"/>
    <component base="long-haf-arrow-tip" yScale="-1" xOffset="597" yOffset="743"/>
    <contour>
      <point x="-60" y="396.5" type="line"/>
      <point x="784" y="396.5" type="line"/>
      <point x="784" y="331.5" type="line"/>
      <point x="-60" y="331.5" type="line"/>
    </contour>
  </outline>
</glyph>
<glyph name="minusline" format="2">
  <advance width="767"/>
  <outline>
    <contour>
      <point x="123" y="323" type="line"/>
      <point x="123" y="374" type="line"/>
      <point x="644" y="374" type="line"/>
      <point x="644" y="323" type="line"/>
    </contour>
  </outline>
</glyph>
<glyph name="o-percent" format="2">
  <advance width="596"/>
  <outline>
    <contour>
      <point x="173.5" y="669" type="curve" smooth="yes"/>
      <point x="213" y="669"/>
      <point x="213" y="584"/>
      <point x="213" y="533" type="curve" smooth="yes"/>
      <point x="213" y="481"/>
      <point x="213" y="393"/>
      <point x="173.5" y="393" type="curve" smooth="yes"/>
      <point x="134" y="393"/>
      <point x="134" y="481"/>
      <point x="134" y="533" type="curve" smooth="yes"/>
      <point x="134" y="584"/>
      <point x="134" y="669"/>
    </contour>
    <contour>
      <point x="29" y="534" type="curve" smooth="yes"/>
      <point x="29" y="457"/>
      <point x="52" y="350"/>
      <point x="172" y="350" type="curve" smooth="yes"/>
      <point x="293.769" y="350"/>
      <point x="318" y="458"/>
      <point x="318" y="534" type="curve" smooth="yes"/>
      <point x="318" y="609"/>
      <point x="293.769" y="712"/>
      <point x="172" y="712" type="curve" smooth="yes"/>
      <point x="52" y="712"/>
      <point x="29" y="609"/>
    </contour>
  </outline>
</glyph>
